<mxfile host="app.diagrams.net" agent="Mozilla/5.0 (Windows NT 10.0; Win64; x64) AppleWebKit/537.36 (KHTML, like Gecko) Chrome/134.0.0.0 Safari/537.36" version="26.2.8">
  <diagram id="wFE0QG_FPsp0jaGvCLVb" name="Page-1">
    <mxGraphModel dx="1037" dy="567" grid="1" gridSize="10" guides="1" tooltips="1" connect="1" arrows="1" fold="1" page="1" pageScale="1" pageWidth="850" pageHeight="1100" math="0" shadow="0">
      <root>
        <mxCell id="0" />
        <mxCell id="1" parent="0" />
        <mxCell id="Ri7pskJAGjxM2nJ7OI_0-13" value="&lt;ul style=&quot;margin-right: 5px; margin-bottom: 12px;&quot;&gt;&lt;li&gt;&lt;font style=&quot;font-size: 9px; background-color: light-dark(#ffffff, var(--ge-dark-color, #121212));&quot;&gt;BAMF/RA/IOM Changes&lt;/font&gt;&lt;/li&gt;&lt;ul&gt;&lt;li&gt;&lt;font style=&quot;background-color: light-dark(#ffffff, var(--ge-dark-color, #121212));&quot;&gt;&lt;font style=&quot;font-size: 9px;&quot;&gt;TRA24_BA069 Quick Fix - BuchungsbestÃ¤tigung steht bereit typo&lt;/font&gt;&lt;/font&gt;&lt;/li&gt;&lt;li&gt;&lt;font style=&quot;background-color: light-dark(#ffffff, var(--ge-dark-color, #121212));&quot;&gt;&lt;font style=&quot;font-size: 9px;&quot;&gt;TRA24_017 Calculation Tool&lt;/font&gt;&lt;/font&gt;&lt;/li&gt;&lt;li&gt;&lt;font style=&quot;background-color: light-dark(#ffffff, var(--ge-dark-color, #121212));&quot;&gt;&lt;font style=&quot;font-size: 9px;&quot;&gt;TRA25_BA026 BAMF UI Cancel case&lt;/font&gt;&lt;/font&gt;&lt;/li&gt;&lt;li&gt;&lt;font style=&quot;background-color: light-dark(#ffffff, var(--ge-dark-color, #121212));&quot;&gt;&lt;font style=&quot;font-size: 9px;&quot;&gt;TRA24_OA062 Chat IOM-RA in Status Departed / No Show&lt;/font&gt;&lt;/font&gt;&lt;/li&gt;&lt;li&gt;&lt;font style=&quot;background-color: light-dark(#ffffff, var(--ge-dark-color, #121212));&quot;&gt;&lt;font style=&quot;font-size: 9px;&quot;&gt;TRA25_BA012 Mark non-eligible persons&amp;nbsp;&lt;/font&gt;&lt;/font&gt;&lt;/li&gt;&lt;li&gt;&lt;font style=&quot;background-color: light-dark(#ffffff, var(--ge-dark-color, #121212));&quot;&gt;&lt;font style=&quot;font-size: 9px;&quot;&gt;TRA24_BA061 Mark not-departed persons&lt;/font&gt;&lt;/font&gt;&lt;/li&gt;&lt;li&gt;&lt;font style=&quot;background-color: light-dark(#ffffff, var(--ge-dark-color, #121212));&quot;&gt;&lt;font style=&quot;font-size: 9px;&quot;&gt;TRA24_020 Disclaimer for SHP Infosheet&amp;nbsp;&lt;/font&gt;&lt;/font&gt;&lt;/li&gt;&lt;/ul&gt;&lt;ul&gt;&lt;li&gt;&lt;font style=&quot;font-size: 9px; background-color: light-dark(#ffffff, var(--ge-dark-color, #121212));&quot;&gt;TRA25_BUG6 OAM Support Disable Calculation Tool assistance editing&lt;/font&gt;&lt;/li&gt;&lt;li&gt;&lt;font style=&quot;font-size: 9px; background-color: light-dark(#ffffff, var(--ge-dark-color, #121212));&quot;&gt;TRA24_MIMS01 Short AH Pop UP in RT case details&lt;/font&gt;&lt;/li&gt;&lt;li&gt;&lt;font style=&quot;font-size: 9px; background-color: light-dark(#ffffff, var(--ge-dark-color, #121212));&quot;&gt;TRA24_049 Reintegration Tool CoD Filter&amp;nbsp;&lt;/font&gt;&lt;/li&gt;&lt;li&gt;&lt;font style=&quot;font-size: 9px; background-color: light-dark(#ffffff, var(--ge-dark-color, #121212));&quot;&gt;TRA24_041 Display all uploaded (older and current) ECF`s for a case in reintegration tool&lt;/font&gt;&lt;/li&gt;&lt;li&gt;&lt;font style=&quot;font-size: 9px; background-color: light-dark(#ffffff, var(--ge-dark-color, #121212));&quot;&gt;TRA24_053 Manage Antrag- Case Details MEDA Team adjustments&lt;/font&gt;&lt;/li&gt;&lt;li&gt;&lt;font style=&quot;font-size: 9px; background-color: light-dark(#ffffff, var(--ge-dark-color, #121212));&quot;&gt;TRA24_056 E-Mail Notification to SHP by status change&lt;/font&gt;&lt;/li&gt;&lt;/ul&gt;&lt;li&gt;&lt;font style=&quot;font-size: 9px;&quot;&gt;Reports:&lt;/font&gt;&lt;/li&gt;&lt;ul&gt;&lt;li&gt;&lt;font style=&quot;font-size: 9px;&quot;&gt;Effected reports by the non eligible and not departed change&lt;/font&gt;&lt;/li&gt;&lt;li&gt;&lt;font style=&quot;font-size: 9px;&quot;&gt;TRA24_REP043 AH Adjustments - Including chat history BAMF UI&lt;/font&gt;&lt;/li&gt;&lt;li&gt;&lt;font style=&quot;font-size: 9px;&quot;&gt;TRA25_BA042 Adjustments of the rawdata report&lt;/font&gt;&lt;/li&gt;&lt;/ul&gt;&lt;li&gt;&lt;font style=&quot;background-color: light-dark(#ffffff, var(--ge-dark-color, #121212));&quot;&gt;&lt;font style=&quot;font-size: 9px;&quot;&gt;TBI:&lt;/font&gt;&lt;/font&gt;&lt;/li&gt;&lt;ul&gt;&lt;li&gt;&lt;font style=&quot;background-color: light-dark(#ffffff, var(--ge-dark-color, #121212));&quot;&gt;&lt;font style=&quot;font-size: 9px;&quot;&gt;TRA25_OA006 Step 7 Mandatory Documents&lt;/font&gt;&lt;/font&gt;&lt;/li&gt;&lt;li&gt;&lt;font style=&quot;font-size: 9px;&quot;&gt;Effected reports by the non eligible and not departed change&lt;/font&gt;&lt;/li&gt;&lt;li&gt;&lt;font style=&quot;font-size: 9px;&quot;&gt;TRA24_REP043 AH Adjustments - Including chat history BAMF UI&lt;/font&gt;&lt;/li&gt;&lt;li&gt;&lt;font style=&quot;font-size: 9px;&quot;&gt;TRA25_BA042 Adjustments of the rawdata report&lt;/font&gt;&lt;/li&gt;&lt;li&gt;&lt;font style=&quot;background-color: light-dark(#ffffff, var(--ge-dark-color, #121212));&quot;&gt;&lt;font style=&quot;font-size: 9px;&quot;&gt;TRA25_BUG2 Step 3 Single Parent&lt;/font&gt;&lt;/font&gt;&lt;/li&gt;&lt;/ul&gt;&lt;/ul&gt;" style="rounded=0;whiteSpace=wrap;html=1;align=left;verticalAlign=top;" vertex="1" parent="1">
          <mxGeometry x="16" y="120" width="274" height="580" as="geometry" />
        </mxCell>
        <mxCell id="Ri7pskJAGjxM2nJ7OI_0-14" value="Sprint Goals" style="text;html=1;align=center;verticalAlign=middle;whiteSpace=wrap;rounded=0;fontStyle=1;fontSize=14;" vertex="1" parent="1">
          <mxGeometry x="72" y="80" width="150" height="30" as="geometry" />
        </mxCell>
        <mxCell id="Ri7pskJAGjxM2nJ7OI_0-17" value="&lt;ul&gt;&lt;li&gt;&amp;nbsp;Creating an MS teams chat channel for each sprint&lt;/li&gt;&lt;li&gt;Not communicating a specific deadline for production deployment&lt;/li&gt;&lt;li&gt;Division of tasks&lt;/li&gt;&lt;li&gt;Advance preparation of the sprint (Azure DevOps)&lt;/li&gt;&lt;li&gt;Focusing on the tasks&lt;/li&gt;&lt;li&gt;Being responsive&lt;/li&gt;&lt;/ul&gt;" style="rounded=0;whiteSpace=wrap;html=1;align=left;verticalAlign=top;fontSize=10;" vertex="1" parent="1">
          <mxGeometry x="290" y="120" width="152" height="580" as="geometry" />
        </mxCell>
        <mxCell id="Ri7pskJAGjxM2nJ7OI_0-18" value="What went well?" style="text;html=1;align=center;verticalAlign=middle;whiteSpace=wrap;rounded=0;fontStyle=1;fontSize=14;" vertex="1" parent="1">
          <mxGeometry x="292" y="80" width="150" height="30" as="geometry" />
        </mxCell>
        <mxCell id="Ri7pskJAGjxM2nJ7OI_0-19" value="&lt;span style=&quot;background-color: transparent; color: light-dark(rgb(0, 0, 0), rgb(255, 255, 255));&quot;&gt;&lt;font style=&quot;font-size: 12px;&quot;&gt;What challenges did you&lt;br&gt;     encounter in the process or while performing your tasks?&lt;/font&gt;&lt;/span&gt;&lt;div&gt;&lt;br&gt;&lt;/div&gt;&lt;div&gt;&lt;span style=&quot;background-color: transparent; color: light-dark(rgb(0, 0, 0), rgb(255, 255, 255));&quot;&gt;&lt;font style=&quot;font-size: 12px;&quot;&gt;What are specific actions&lt;br&gt;     that you and/or everyone together could take to improve the process in the&lt;br&gt;     future?&lt;/font&gt;&lt;/span&gt;&lt;/div&gt;&lt;div&gt;&lt;span style=&quot;background-color: transparent; color: light-dark(rgb(0, 0, 0), rgb(255, 255, 255));&quot;&gt;&lt;br&gt;&lt;/span&gt;&lt;/div&gt;&lt;div&gt;&lt;ul&gt;&lt;li&gt;&lt;span style=&quot;background-color: transparent; color: light-dark(rgb(0, 0, 0), rgb(255, 255, 255));&quot;&gt;Present the final list of req. to the SSI team before starting the the sprint (including the effected pages or functionalities)&lt;/span&gt;&lt;/li&gt;&lt;li&gt;&lt;span style=&quot;background-color: transparent; color: light-dark(rgb(0, 0, 0), rgb(255, 255, 255));&quot;&gt;Checklist within the DevOps items to outline what needs to be done for a specific task.&lt;/span&gt;&lt;/li&gt;&lt;li&gt;&lt;span style=&quot;background-color: transparent; color: light-dark(rgb(0, 0, 0), rgb(255, 255, 255));&quot;&gt;Preform pre-testing from SSI team before OAM team tests.&lt;/span&gt;&lt;/li&gt;&lt;li&gt;&lt;span style=&quot;background-color: transparent; color: light-dark(rgb(0, 0, 0), rgb(255, 255, 255));&quot;&gt;Communicating technical implementations with OAM team (for UI).&lt;/span&gt;&lt;/li&gt;&lt;li&gt;&lt;span style=&quot;background-color: transparent; color: light-dark(rgb(0, 0, 0), rgb(255, 255, 255));&quot;&gt;Recoding meetings, sharing summery of the meetings, call directly from the chat group.&lt;/span&gt;&lt;/li&gt;&lt;li&gt;&lt;span style=&quot;background-color: transparent; color: light-dark(rgb(0, 0, 0), rgb(255, 255, 255));&quot;&gt;Testing coordination (referring to a case that was already updated)&lt;/span&gt;&lt;/li&gt;&lt;li&gt;Streamline the product backlog items&amp;nbsp;&lt;/li&gt;&lt;li&gt;Improve the testing result (excel sheet or Azure DevOps)&lt;/li&gt;&lt;/ul&gt;&lt;/div&gt;" style="rounded=0;whiteSpace=wrap;html=1;verticalAlign=top;align=left;fontSize=10;" vertex="1" parent="1">
          <mxGeometry x="443" y="120" width="177" height="580" as="geometry" />
        </mxCell>
        <mxCell id="Ri7pskJAGjxM2nJ7OI_0-20" value="Challenges / Improvements" style="text;html=1;align=center;verticalAlign=middle;whiteSpace=wrap;rounded=0;fontStyle=1;fontSize=14;" vertex="1" parent="1">
          <mxGeometry x="452" y="80" width="150" height="30" as="geometry" />
        </mxCell>
        <mxCell id="Ri7pskJAGjxM2nJ7OI_0-22" style="edgeStyle=orthogonalEdgeStyle;rounded=0;orthogonalLoop=1;jettySize=auto;html=1;exitX=0.5;exitY=1;exitDx=0;exitDy=0;" edge="1" parent="1">
          <mxGeometry relative="1" as="geometry">
            <mxPoint x="367.9999999999998" y="510" as="sourcePoint" />
            <mxPoint x="367.9999999999998" y="510" as="targetPoint" />
          </mxGeometry>
        </mxCell>
        <mxCell id="Ri7pskJAGjxM2nJ7OI_0-23" value="&lt;ul&gt;&lt;li&gt;&lt;span style=&quot;background-color: transparent; color: light-dark(rgb(0, 0, 0), rgb(255, 255, 255));&quot;&gt;Present the final list of req. to the SSI team before starting the the sprint (including the effected pages or functionalities)&lt;/span&gt;&lt;/li&gt;&lt;li&gt;&lt;span style=&quot;background-color: transparent; color: light-dark(rgb(0, 0, 0), rgb(255, 255, 255));&quot;&gt;Checklist within the DevOps items to outline what needs to be done for a specific task.&lt;/span&gt;&lt;/li&gt;&lt;li&gt;&lt;span style=&quot;background-color: transparent; color: light-dark(rgb(0, 0, 0), rgb(255, 255, 255));&quot;&gt;Preform pre-testing from SSI team before OAM team tests.&lt;/span&gt;&lt;/li&gt;&lt;li&gt;&lt;span style=&quot;background-color: transparent; color: light-dark(rgb(0, 0, 0), rgb(255, 255, 255));&quot;&gt;Communicating technical implementations with OAM team (for UI).&lt;/span&gt;&lt;/li&gt;&lt;li&gt;&lt;span style=&quot;background-color: transparent; color: light-dark(rgb(0, 0, 0), rgb(255, 255, 255));&quot;&gt;Recoding meetings, sharing summery of the meetings, call directly from the chat group.&lt;/span&gt;&lt;/li&gt;&lt;li&gt;&lt;span style=&quot;background-color: transparent; color: light-dark(rgb(0, 0, 0), rgb(255, 255, 255));&quot;&gt;Testing coordination (referring to a case that was already updated)&lt;/span&gt;&lt;/li&gt;&lt;li&gt;Streamline the product backlog items&amp;nbsp;&lt;/li&gt;&lt;li&gt;Improve the testing result (excel sheet or Azure DevOps)&lt;/li&gt;&lt;/ul&gt;" style="rounded=0;whiteSpace=wrap;html=1;verticalAlign=top;align=left;fontSize=10;" vertex="1" parent="1">
          <mxGeometry x="621" y="120" width="209" height="580" as="geometry" />
        </mxCell>
        <mxCell id="Ri7pskJAGjxM2nJ7OI_0-24" value="Commit to implement in the next sprint ?" style="text;html=1;align=center;verticalAlign=middle;whiteSpace=wrap;rounded=0;fontStyle=1;fontSize=14;" vertex="1" parent="1">
          <mxGeometry x="632" y="79" width="150" height="30" as="geometry" />
        </mxCell>
        <mxCell id="Ri7pskJAGjxM2nJ7OI_0-25" value="" style="shape=image;html=1;verticalAlign=top;verticalLabelPosition=bottom;labelBackgroundColor=#ffffff;imageAspect=0;aspect=fixed;image=https://cdn4.iconfinder.com/data/icons/online-marketing-hand-drawn-vol-2/52/goals__seo__target__mission__office__shooting__business-128.png" vertex="1" parent="1">
          <mxGeometry x="134" y="41" width="30" height="30" as="geometry" />
        </mxCell>
        <mxCell id="Ri7pskJAGjxM2nJ7OI_0-26" value="" style="sketch=0;html=1;aspect=fixed;strokeColor=none;shadow=0;align=center;fillColor=#2D9C5E;verticalAlign=top;labelPosition=center;verticalLabelPosition=bottom;shape=mxgraph.gcp2.check;direction=east;" vertex="1" parent="1">
          <mxGeometry x="349.25" y="41" width="37.5" height="30" as="geometry" />
        </mxCell>
        <mxCell id="Ri7pskJAGjxM2nJ7OI_0-27" value="" style="verticalLabelPosition=bottom;shadow=0;dashed=0;align=center;html=1;verticalAlign=top;shape=mxgraph.electrical.opto_electronics.photo_resistor_3;" vertex="1" parent="1">
          <mxGeometry x="513" y="41" width="30" height="30" as="geometry" />
        </mxCell>
        <mxCell id="Ri7pskJAGjxM2nJ7OI_0-28" value="" style="shape=image;html=1;verticalAlign=top;verticalLabelPosition=bottom;labelBackgroundColor=#ffffff;imageAspect=0;aspect=fixed;image=https://cdn1.iconfinder.com/data/icons/business-and-finance-20/200/vector_65_12-128.png" vertex="1" parent="1">
          <mxGeometry x="683" y="31" width="48" height="48" as="geometry" />
        </mxCell>
        <mxCell id="Ri7pskJAGjxM2nJ7OI_0-29" style="edgeStyle=orthogonalEdgeStyle;rounded=0;orthogonalLoop=1;jettySize=auto;html=1;exitX=0;exitY=0.5;exitDx=0;exitDy=0;entryX=0;entryY=0.25;entryDx=0;entryDy=0;" edge="1" parent="1" source="Ri7pskJAGjxM2nJ7OI_0-25" target="Ri7pskJAGjxM2nJ7OI_0-25">
          <mxGeometry relative="1" as="geometry" />
        </mxCell>
      </root>
    </mxGraphModel>
  </diagram>
</mxfile>
